<svg xmlns="http://www.w3.org/2000/svg" viewBox="0 0 77.16 91"><defs><style>.cls-1{fill:#e5007d;}</style></defs><title>350offres</title><g id="Calque_2" data-name="Calque 2"><g id="Calque_1-2" data-name="Calque 1"><path class="cls-1" d="M57.59,0H5.33A5.33,5.33,0,0,0,0,5.33V23.46a1.78,1.78,0,1,0,3.55,0V5.33A1.78,1.78,0,0,1,5.33,3.55H57.59a1.78,1.78,0,0,1,1.77,1.78V71.45a1.78,1.78,0,0,1-1.77,1.78H5.33a1.78,1.78,0,0,1-1.78-1.78v-33a1.78,1.78,0,1,0-3.55,0v33a5.33,5.33,0,0,0,5.33,5.33H57.59a5.33,5.33,0,0,0,5.33-5.33V5.33A5.33,5.33,0,0,0,57.59,0Z"/><path class="cls-1" d="M3,30.16a1.77,1.77,0,0,0-2.51,0,1.78,1.78,0,0,0,1.26,3,1.78,1.78,0,0,0,1.25-3Z"/><path class="cls-1" d="M10.15,80.87a1.77,1.77,0,0,0-1.25-.52,1.78,1.78,0,1,0,0,3.55,1.77,1.77,0,0,0,1.25-.52,1.77,1.77,0,0,0,0-2.51Z"/><path class="cls-1" d="M68.26,7.12A1.78,1.78,0,0,0,66.48,8.9V78.57a1.78,1.78,0,0,1-1.77,1.78H16a1.78,1.78,0,1,0,0,3.55h48.7A5.33,5.33,0,0,0,70,78.57V8.9a1.78,1.78,0,0,0-1.78-1.78Z"/><path class="cls-1" d="M75.38,14.22A1.78,1.78,0,0,0,73.6,16V85.67a1.78,1.78,0,0,1-1.77,1.78H16A1.78,1.78,0,1,0,16,91H71.83a5.33,5.33,0,0,0,5.33-5.33V16a1.78,1.78,0,0,0-1.78-1.78Z"/><path class="cls-1" d="M28.79,13.15H11.73A1.78,1.78,0,0,0,10,14.93V32a1.78,1.78,0,0,0,1.78,1.78H28.79A1.78,1.78,0,0,0,30.57,32V14.93a1.78,1.78,0,0,0-1.78-1.78ZM27,30.21H13.51V16.71H27Z"/><path class="cls-1" d="M23.07,41.84a1.77,1.77,0,0,0-2.51,0l-4.72,4.72-2.2-2.19a1.78,1.78,0,1,0-2.52,2.51l3.46,3.45a1.77,1.77,0,0,0,2.51,0l6-6a1.76,1.76,0,0,0,0-2.51Z"/><path class="cls-1" d="M52.19,44.26H31.46a1.78,1.78,0,1,0,0,3.55H52.19a1.78,1.78,0,1,0,0-3.55Z"/><path class="cls-1" d="M51.19,13.15H38.75a1.78,1.78,0,0,0,0,3.56H51.19a1.78,1.78,0,0,0,0-3.56Z"/><path class="cls-1" d="M51.19,21.68H38.75a1.78,1.78,0,0,0,0,3.56H51.19a1.78,1.78,0,0,0,0-3.56Z"/><path class="cls-1" d="M51.19,30.21H38.75a1.78,1.78,0,1,0,0,3.56H51.19a1.78,1.78,0,0,0,0-3.56Z"/><path class="cls-1" d="M23.07,55.41a1.78,1.78,0,0,0-2.51,0l-4.72,4.73-2.2-2.2a1.78,1.78,0,1,0-2.52,2.51l3.46,3.46a1.77,1.77,0,0,0,2.51,0l6-6a1.77,1.77,0,0,0,0-2.52Z"/><path class="cls-1" d="M52.19,57.76H31.46a1.78,1.78,0,0,0,0,3.56H52.19a1.78,1.78,0,0,0,0-3.56Z"/></g></g></svg>