<svg xmlns="http://www.w3.org/2000/svg" viewBox="0 0 91 91"><defs><style>.cls-1{fill:#e5007d;}</style></defs><title>50entreprises</title><g id="Calque_2" data-name="Calque 2"><g id="Calque_1-2" data-name="Calque 1"><rect class="cls-1" x="31.85" y="30.33" width="3.03" height="3.03"/><rect class="cls-1" x="31.85" y="36.4" width="3.03" height="3.03"/><rect class="cls-1" x="31.85" y="42.47" width="3.03" height="3.03"/><rect class="cls-1" x="31.85" y="48.53" width="3.03" height="3.03"/><rect class="cls-1" x="37.92" y="30.33" width="3.03" height="3.03"/><rect class="cls-1" x="37.92" y="36.4" width="3.03" height="3.03"/><rect class="cls-1" x="37.92" y="42.47" width="3.03" height="3.03"/><rect class="cls-1" x="37.92" y="48.53" width="3.03" height="3.03"/><rect class="cls-1" x="43.98" y="30.33" width="3.03" height="3.03"/><rect class="cls-1" x="43.98" y="36.4" width="3.03" height="3.03"/><rect class="cls-1" x="43.98" y="42.47" width="3.03" height="3.03"/><rect class="cls-1" x="43.98" y="48.53" width="3.03" height="3.03"/><rect class="cls-1" x="50.05" y="30.33" width="3.03" height="3.03"/><rect class="cls-1" x="37.92" y="24.27" width="3.03" height="3.03"/><rect class="cls-1" x="43.98" y="24.27" width="3.03" height="3.03"/><rect class="cls-1" x="50.05" y="24.27" width="3.03" height="3.03"/><rect class="cls-1" x="50.05" y="36.4" width="3.03" height="3.03"/><rect class="cls-1" x="50.05" y="42.47" width="3.03" height="3.03"/><rect class="cls-1" x="50.05" y="48.53" width="3.03" height="3.03"/><rect class="cls-1" x="56.12" y="30.33" width="3.03" height="3.03"/><rect class="cls-1" x="56.12" y="36.4" width="3.03" height="3.03"/><rect class="cls-1" x="56.12" y="42.47" width="3.03" height="3.03"/><rect class="cls-1" x="56.12" y="48.53" width="3.03" height="3.03"/><path class="cls-1" d="M89.49,22.75H66.73V1.52A1.51,1.51,0,0,0,65.22,0H25.78a1.52,1.52,0,0,0-1.51,1.51h0V22.75H1.52A1.52,1.52,0,0,0,0,24.26H0v54.6a1.52,1.52,0,0,0,1.51,1.51H4.69a8.6,8.6,0,0,0-.14,1.52v7.58A1.52,1.52,0,0,0,6.06,91H84.93a1.52,1.52,0,0,0,1.52-1.51h0V81.9a8.6,8.6,0,0,0-.14-1.52h3.17A1.51,1.51,0,0,0,91,78.87h0V24.27a1.52,1.52,0,0,0-1.51-1.52ZM65.22,65.22a3,3,0,1,1-3-3,3,3,0,0,1,3,3Zm-36.4-3a3,3,0,1,1-3,3,3,3,0,0,1,3-3ZM19.72,88H7.58V81.9a6.07,6.07,0,0,1,12.14,0Zm-9.1-18.2a3,3,0,1,1,3,3,3,3,0,0,1-3-3ZM20,75.35A9.38,9.38,0,0,0,18,73.93a6.07,6.07,0,1,0-8.78,0,9.22,9.22,0,0,0-3.48,3.42H3V25.78H24.27V61.25a6,6,0,0,0,.16,8.13,9.09,9.09,0,0,0-4.48,6ZM34.88,88H22.75V77.35a6.07,6.07,0,1,1,12.13,0Zm18.2,0H37.92V77.35a7.58,7.58,0,0,1,15.16,0ZM41,62.18a4.55,4.55,0,1,1,4.55,4.55A4.55,4.55,0,0,1,41,62.18Zm13.79,10a10.81,10.81,0,0,0-4.35-4.21A7.59,7.59,0,1,0,39.7,67a7.11,7.11,0,0,0,.91.91,10.81,10.81,0,0,0-4.35,4.21,9.11,9.11,0,0,0-3.06-2.76,6,6,0,0,0-5.9-10V3H63.7V59.37a5.94,5.94,0,0,0-1.52-.22,6,6,0,0,0-6.06,6,6,6,0,0,0,1.68,4.19,9.11,9.11,0,0,0-3.06,2.76ZM68.25,81.9V88H56.12V77.35a6.07,6.07,0,1,1,12.13,0ZM83.42,88H71.28V81.9a6.07,6.07,0,1,1,12.14,0Zm-9.1-18.2a3,3,0,1,1,3,3,3,3,0,0,1-3-3ZM88,77.35H85.22a9.22,9.22,0,0,0-3.48-3.42,6.07,6.07,0,1,0-8.78,0,9.72,9.72,0,0,0-1.91,1.41,9.1,9.1,0,0,0-4.48-6,6,6,0,0,0,.16-8.13V25.78H88Z"/><rect class="cls-1" x="71.28" y="34.88" width="3.03" height="24.27"/><rect class="cls-1" x="80.38" y="34.88" width="3.03" height="24.27"/><rect class="cls-1" x="7.58" y="34.88" width="3.03" height="24.27"/><rect class="cls-1" x="16.68" y="34.88" width="3.03" height="24.27"/><path class="cls-1" d="M54.6,6.07H36.4a1.51,1.51,0,0,0-1.52,1.51h0V19.72a1.52,1.52,0,0,0,1.52,1.51H54.6a1.51,1.51,0,0,0,1.52-1.51h0V7.58A1.52,1.52,0,0,0,54.6,6.07ZM53.08,18.2H37.92V9.1H53.08Z"/></g></g></svg>