<svg xmlns="http://www.w3.org/2000/svg" viewBox="0 0 619.6 258.88"><defs><style>.cls-1{fill:#e5007d;}.cls-2{fill:#fff;}</style></defs><title>destination-emploi</title><g id="Calque_2" data-name="Calque 2"><g id="Calque_1-2" data-name="Calque 1"><path class="cls-1" d="M320.1,18.09c3.95-9.4-4.16-19.26-14.71-18C284,2.71,279,2.43,259.71,5.84c-5.57,1-11.94,8.26-14.4,14C222,73.83,185.46,143.51,163.36,198c-2.5,6.16-2.56,16,1,21,10.84,15.52,13.11,18.71,25.66,34.6,6.55,8.29,20.26,6.49,24.34-3.25Z"/><path class="cls-2" d="M0,40.59H28a39.2,39.2,0,0,1,17.73,3.83,28.62,28.62,0,0,1,12,10.77,30.31,30.31,0,0,1,4.27,16.19,30.26,30.26,0,0,1-4.27,16.19,28.58,28.58,0,0,1-12,10.78A39.33,39.33,0,0,1,28,102.18H0ZM27.28,90.48q9.22,0,14.73-5.15t5.5-14q0-8.79-5.5-13.94T27.28,52.29h-13V90.48Z"/><path class="cls-2" d="M120.37,90.74v11.44H72.68V40.59h46.54V52H86.84V65.4h28.6V76.49H86.84V90.74Z"/><path class="cls-2" d="M137.83,101.26a33.12,33.12,0,0,1-11-5.15l4.84-10.74A32.85,32.85,0,0,0,141.13,90,35.45,35.45,0,0,0,152,91.8q6.08,0,9-1.81a5.45,5.45,0,0,0,2.9-4.79,4.57,4.57,0,0,0-1.71-3.65,13.15,13.15,0,0,0-4.41-2.34c-1.78-.58-4.21-1.23-7.25-1.93A100,100,0,0,1,139,73.94a18.83,18.83,0,0,1-7.7-5.37q-3.21-3.7-3.21-9.86A17.19,17.19,0,0,1,131,49a19.67,19.67,0,0,1,8.76-6.91,35.71,35.71,0,0,1,14.29-2.55,47.28,47.28,0,0,1,11.53,1.41A34.11,34.11,0,0,1,175.45,45l-4.4,10.82A34.41,34.41,0,0,0,154,51q-6,0-8.85,1.94a5.92,5.92,0,0,0-2.86,5.1c0,2.11,1.11,3.68,3.31,4.71a51.47,51.47,0,0,0,10.07,3,101,101,0,0,1,11.53,3.35,19,19,0,0,1,7.69,5.27q3.21,3.61,3.22,9.77a16.89,16.89,0,0,1-3,9.64,19.88,19.88,0,0,1-8.84,6.9A36.14,36.14,0,0,1,152,103.24,50.44,50.44,0,0,1,137.83,101.26Z"/><path class="cls-2" d="M199.73,52.2H180V40.59h53.67V52.2H214v50H199.73Z"/><path class="cls-2" d="M241.35,40.59H255.6v61.59H241.35Z"/><path class="cls-2" d="M326.69,40.59v61.59H315L284.28,64.79v37.39H270.2V40.59H282L312.61,78V40.59Z"/><path class="cls-2" d="M381.86,89h-28.6l-5.45,13.2H333.2l27.46-61.59h14.07l27.54,61.59h-15Zm-4.49-10.82-9.76-23.58-9.77,23.58Z"/><path class="cls-2" d="M418.37,52.2H398.66V40.59h53.68V52.2H432.63v50H418.37Z"/><path class="cls-2" d="M460,40.59h14.26v61.59H460Z"/><path class="cls-2" d="M501.39,99.1a30.71,30.71,0,0,1-12.06-11.39A31.15,31.15,0,0,1,485,71.38a31.14,31.14,0,0,1,4.35-16.32,30.71,30.71,0,0,1,12.06-11.39,38.07,38.07,0,0,1,34.53,0,31.41,31.41,0,0,1,0,55.43,38.07,38.07,0,0,1-34.53,0Zm27.14-10.52a18,18,0,0,0,6.91-7,22,22,0,0,0,0-20.41,18,18,0,0,0-6.91-7,20.67,20.67,0,0,0-19.71,0,18,18,0,0,0-6.9,7,20.46,20.46,0,0,0-2.51,10.2,20.47,20.47,0,0,0,2.51,10.21,18,18,0,0,0,6.9,7,20.6,20.6,0,0,0,19.71,0Z"/><path class="cls-2" d="M619.6,40.59v61.59H607.9L577.19,64.79v37.39H563.11V40.59H574.9L605.52,78V40.59Z"/><path class="cls-2" d="M199.56,196.23v15.93H133.14V126.38H198v15.93h-45.1v18.63H192.7v15.44H152.87v19.85Z"/><path class="cls-2" d="M293.44,212.16l-.12-51.47-25.25,42.4h-8.94L234,161.79v50.37H215.37V126.38H231.8l32.1,53.31,31.62-53.31h16.3l.25,85.78Z"/><path class="cls-2" d="M389.34,130.18A29.35,29.35,0,0,1,402.26,141a32.31,32.31,0,0,1,0,33,28.84,28.84,0,0,1-12.92,10.78,48.25,48.25,0,0,1-19.8,3.74H352.26v23.65H332.41V126.38h37.13A47.58,47.58,0,0,1,389.34,130.18ZM382,168.47q4.66-3.85,4.66-11T382,146.41q-4.65-3.85-13.6-3.86H352.26v29.78h16.18Q377.38,172.33,382,168.47Z"/><path class="cls-2" d="M420.89,126.38h19.86V196h43v16.17H420.89Z"/><path class="cls-2" d="M510.91,207.87A42.72,42.72,0,0,1,494.12,192a45.59,45.59,0,0,1,0-45.46,42.72,42.72,0,0,1,16.79-15.87,53,53,0,0,1,48.1,0,43.75,43.75,0,0,1,0,77.2,53.09,53.09,0,0,1-48.1,0Zm37.81-14.64a25.16,25.16,0,0,0,9.62-9.74,30.71,30.71,0,0,0,0-28.44,25.16,25.16,0,0,0-9.62-9.74,28.75,28.75,0,0,0-27.46,0,25.16,25.16,0,0,0-9.62,9.74,30.71,30.71,0,0,0,0,28.44,25.16,25.16,0,0,0,9.62,9.74,28.75,28.75,0,0,0,27.46,0Z"/><path class="cls-2" d="M596.88,126.38h19.85v85.78H596.88Z"/></g></g></svg>