<svg xmlns="http://www.w3.org/2000/svg" viewBox="0 0 87.97 91"><defs><style>.cls-1{fill:#e5007d;}</style></defs><title>formation</title><g id="Calque_2" data-name="Calque 2"><g id="Calque_1-2" data-name="Calque 1"><path class="cls-1" d="M87.9,85.66l-.89-5a6,6,0,0,0,.8-4.17L86,66,76,9.22a4.55,4.55,0,0,0-5.27-3.69l-3,.53a4.49,4.49,0,0,0-2.5,1.36A7.59,7.59,0,0,0,57.63,0H7.58A7.6,7.6,0,0,0,0,7.58V47a1.52,1.52,0,0,0,3,0V7.58A4.55,4.55,0,0,1,7.58,3H57.63a4.55,4.55,0,0,1,4.55,4.55v4.55H9.1a1.52,1.52,0,0,0,0,3H62.18V75.83H9.1a1.52,1.52,0,1,0,0,3H62.18v4.55A4.55,4.55,0,0,1,57.63,88H7.58A4.55,4.55,0,0,1,3,83.42V57.63a1.52,1.52,0,0,0-3,0V83.42A7.6,7.6,0,0,0,7.58,91H57.63a7.6,7.6,0,0,0,7.59-7.58V18.17L74,68.09l1.85,10.45A6,6,0,0,0,78,82.21l.89,5A4.55,4.55,0,0,0,83.41,91a4.4,4.4,0,0,0,.8-.07,4.56,4.56,0,0,0,3.69-5.27ZM78.85,78l-1.58-9,6-1.06,1.58,9a3,3,0,1,1-6,1.06ZM67.25,9.67a1.51,1.51,0,0,1,1-.63l3-.52a1.1,1.1,0,0,1,.26,0A1.5,1.5,0,0,1,73,9.75l1.32,7.47-6,1.05L67,10.8a1.51,1.51,0,0,1,.25-1.13Zm1.59,11.59,6-1.06L82.72,65l-6,1.06ZM83.68,87.94a1.51,1.51,0,0,1-1.76-1.23l-.56-3.2a3.57,3.57,0,0,0,.47,0A5.65,5.65,0,0,0,84.35,83l.56,3.2a1.51,1.51,0,0,1-1.23,1.75Z"/><path class="cls-1" d="M45.5,18.2H36.4a1.52,1.52,0,0,0-1.52,1.52v3H19.72a6.07,6.07,0,0,0-6.07,6.07V63.7a7.59,7.59,0,0,0,7.58,7.58H51.57a1.52,1.52,0,0,0,0-3H21.23a4.55,4.55,0,1,1,0-9.1H51.57a1.52,1.52,0,0,0,1.51-1.52V24.27a1.52,1.52,0,0,0-1.51-1.52H47v-3A1.52,1.52,0,0,0,45.5,18.2Zm-7.58,3H44v9.3l-2.19-1.46a1.51,1.51,0,0,0-1.68,0l-2.19,1.46Zm12.13,4.55V56.12H21.23a7.51,7.51,0,0,0-4.55,1.55V28.82a3,3,0,0,1,3-3H34.88v7.59a1.52,1.52,0,0,0,2.36,1.26L41,32.15l3.71,2.48a1.51,1.51,0,0,0,1.55.07A1.5,1.5,0,0,0,47,33.37V25.78Z"/><path class="cls-1" d="M51.57,62.18H24.27a1.52,1.52,0,0,0,0,3h27.3a1.52,1.52,0,0,0,0-3Z"/><path class="cls-1" d="M37.92,7.58A1.52,1.52,0,1,1,36.4,6.07a1.52,1.52,0,0,1,1.52,1.51Z"/><path class="cls-1" d="M31.85,7.58a1.52,1.52,0,1,1-1.52-1.51,1.52,1.52,0,0,1,1.52,1.51Z"/><path class="cls-1" d="M39.43,84.93a1.52,1.52,0,1,0,0-3H27.3a1.52,1.52,0,1,0,0,3Z"/></g></g></svg>