<svg xmlns="http://www.w3.org/2000/svg" viewBox="0 0 44.59 40.76"><defs><style>.cls-1{fill:#00b2bb;}</style></defs><title>guillemets</title><g id="Calque_2" data-name="Calque 2"><g id="Calque_1-2" data-name="Calque 1"><path class="cls-1" d="M16.29,26.93a8.63,8.63,0,0,1,1.22,4.5,9,9,0,0,1-2.7,6.63,8.81,8.81,0,0,1-6.46,2.7A8.1,8.1,0,0,1,0,32.41a11.28,11.28,0,0,1,.66-3.92A34.43,34.43,0,0,1,3,23.74L15.55,0h7.86L12.93,23.91A7.44,7.44,0,0,1,16.29,26.93Z"/><path class="cls-1" d="M37.47,26.93a8.63,8.63,0,0,1,1.22,4.5A9,9,0,0,1,36,38.06a8.81,8.81,0,0,1-6.46,2.7,8.1,8.1,0,0,1-8.35-8.35,11.28,11.28,0,0,1,.66-3.92,34.43,34.43,0,0,1,2.29-4.75L36.73,0h7.86L34.11,23.91A7.44,7.44,0,0,1,37.47,26.93Z"/></g></g></svg>