<svg xmlns="http://www.w3.org/2000/svg" xmlns:xlink="http://www.w3.org/1999/xlink" viewBox="0 0 158.81 155.99"><defs><style>.cls-1{fill:none;}.cls-2{fill:#00b2bb;}.cls-3{clip-path:url(#clip-path);}.cls-4{fill:#fff;}</style><clipPath id="clip-path"><circle class="cls-1" cx="80.81" cy="78" r="78"/></clipPath></defs><title>icon-btp</title><g id="Calque_2" data-name="Calque 2"><g id="Calque_1-2" data-name="Calque 1"><circle class="cls-2" cx="80.81" cy="78" r="78"/><g class="cls-3"><path class="cls-4" d="M100.47,78a2,2,0,0,0,2-2V47.85h16.08a2,2,0,0,0,2-2v-8a1.42,1.42,0,0,0,0-.22,2,2,0,0,0-.08-.43,2,2,0,0,0-.14-.3,1.93,1.93,0,0,0-.8-.8,1.83,1.83,0,0,0-.32-.14,1.11,1.11,0,0,0-.16-.07L42.66,17.76a2.4,2.4,0,0,0-.46-.05h-8a2,2,0,0,0-.69.14l-.16.06-.14.06L1,36.05a2,2,0,0,0-.27.23l-.19.15A2,2,0,0,0,.15,37v0a2.29,2.29,0,0,0-.14.69s0,0,0,.07v8a2,2,0,0,0,2,2H30.14V85.2l-7.45,7.45a2,2,0,0,0-.59,1.42v32.15h-4v12.06H58.27V126.22h-4V94.07a2,2,0,0,0-.59-1.42L46.22,85.2V47.85H86.41V76a2,2,0,0,0,2,2h4v6a2,2,0,0,0,2,2,4,4,0,1,1-4,4V88h-4v2a8,8,0,0,0,4.2,7L75.53,112.16h-5.2a2,2,0,0,0-2,2v18.08a2,2,0,0,0,2,2h48.23a2,2,0,0,0,2-2V114.17a2,2,0,0,0-2-2h-5.2L98.28,97.07a8,8,0,0,0-1.83-14.8V78Zm2-38.18h14.07v4H102.48Zm14.07,76.36v14.06H72.34V116.18Zm-8.87-4H81.21L94.45,98.92ZM98.46,65.94h-8V47.85h8Zm0-22.1h-8v-4h8ZM36.17,21.73h4V35.8h-4Zm-2,18.09h8V43l-.83.84H34.16Zm8,8.87V63.1L35,55.89Zm-8-.84h3.19L34.16,51Zm0,12.89L41.37,68l-7.21,7.2Zm8,12.06V87.21L35,80ZM34.16,86V84.86l7.21,7.2-7.21,7.21Zm8,10.88v14.42L35,104.12Zm-8,12.06,7.21,7.21-7.21,7.2Zm8,12.06v5.19H37ZM32.15,23.16V35.8H9.68ZM4,43.84v-4H30.14v4ZM26.12,94.9l4-4v35.34h-4Zm28.14,35.34v4H22.1v-4Zm-4-35.34v31.32h-4V90.88ZM86.41,43.84H46.22v-4H86.41Zm-42.2-8V22.26L101.36,35.8ZM90.43,74V70h8v4Z"/></g></g></g></svg>