<svg xmlns="http://www.w3.org/2000/svg" viewBox="0 0 34.62 34.63"><defs><style>.cls-1{fill:#e5007d;}.cls-2{fill:#fff;}</style></defs><title>icon-in</title><g id="Calque_2" data-name="Calque 2"><g id="Calque_1-2" data-name="Calque 1"><g id="_Groupe_" data-name="&lt;Groupe&gt;"><path class="cls-1" d="M34.62,17.31A17.31,17.31,0,1,1,17.31,0,17.32,17.32,0,0,1,34.62,17.31Z"/></g><path class="cls-2" d="M28.25,18.56v7.15H24.11V19c0-1.68-.6-2.82-2.1-2.82a2.27,2.27,0,0,0-2.13,1.51,2.85,2.85,0,0,0-.13,1v7H15.6s.05-11.3,0-12.47h4.15V15l0,0h0v0A4.1,4.1,0,0,1,23.48,13c2.73,0,4.77,1.78,4.77,5.61Zm-17-11.33a2.16,2.16,0,1,0,0,4.31h0a2.16,2.16,0,1,0,0-4.31ZM9.16,25.71h4.15V13.24H9.16Z"/></g></g></svg>