<svg xmlns="http://www.w3.org/2000/svg" xmlns:xlink="http://www.w3.org/1999/xlink" viewBox="0 0 157.54 155.99"><defs><style>.cls-1{fill:none;}.cls-2{fill:#00b2bb;}.cls-3{clip-path:url(#clip-path);}.cls-4{fill:#fff;}</style><clipPath id="clip-path"><circle class="cls-1" cx="78" cy="78" r="78"/></clipPath></defs><title>icon-service</title><g id="Calque_2" data-name="Calque 2"><g id="Calque_1-2" data-name="Calque 1"><circle class="cls-2" cx="78" cy="78" r="78"/><g class="cls-3"><path class="cls-4" d="M150,112.05a1.87,1.87,0,0,0-1.87,1.87,1.88,1.88,0,0,1-1.88,1.88H116.19a14.57,14.57,0,0,0-9.39,3V83.85a9.4,9.4,0,0,1,9.39-9.39h30.08a1.88,1.88,0,0,1,1.88,1.88,1.88,1.88,0,1,0,3.75,0,5.63,5.63,0,0,0-5.63-5.64h-1.88V68.82a5.64,5.64,0,0,0-5.64-5.64H118.07V58.43A16.81,16.81,0,0,0,125,53.78h11.46a5.63,5.63,0,0,0,5.6-6.21L138.75,16a1.88,1.88,0,1,0-3.74.39L138.33,48A1.86,1.86,0,0,1,136.48,50h-8.91a16.85,16.85,0,0,0,1.78-7.53V16.19a1.88,1.88,0,0,0-1.88-1.88H120a1.88,1.88,0,0,0,0,3.76h5.64V42.51a13.17,13.17,0,0,1-13.15,13.15H89.88A13.17,13.17,0,0,1,76.73,42.51V18.07h28.89a1.88,1.88,0,0,0,0-3.76H74.85A1.88,1.88,0,0,0,73,16.19V42.51A16.73,16.73,0,0,0,74.75,50h-8.9A1.87,1.87,0,0,1,64,48l3.33-31.57A1.88,1.88,0,0,0,63.59,16L60.27,47.57a5.62,5.62,0,0,0,5.58,6.21H77.32a16.71,16.71,0,0,0,6.93,4.65v4.75H63.57a5.64,5.64,0,0,0-5.64,5.64V70.7H56.05a5.63,5.63,0,0,0-5.63,5.64,1.88,1.88,0,1,0,3.75,0,1.88,1.88,0,0,1,1.88-1.88H86.12a9.4,9.4,0,0,1,9.4,9.39v34.92a14.58,14.58,0,0,0-9.4-3H56.05a1.88,1.88,0,0,1-1.88-1.88,1.88,1.88,0,0,0-3.75,0,5.63,5.63,0,0,0,5.63,5.64H86.12c5.1,0,8.56,2.24,9.25,6a2.08,2.08,0,0,0,2,1.54h7.52l.09,0,.09,0a1.88,1.88,0,0,0,1.85-1.54c.69-3.74,4.15-6,9.24-6h30.08a5.63,5.63,0,0,0,5.63-5.64,1.88,1.88,0,0,0-1.88-1.87ZM88,59.42h26.32v3.76h-3.76a13.13,13.13,0,0,0-9.4,3.95,13.13,13.13,0,0,0-9.4-3.95H88ZM86.12,70.7H61.69V68.82a1.88,1.88,0,0,1,1.88-1.88H91.76a9.36,9.36,0,0,1,7.83,4.21,2,2,0,0,0,3.14,0,9.37,9.37,0,0,1,7.83-4.21h28.19a1.88,1.88,0,0,1,1.88,1.88V70.7H116.19a13.15,13.15,0,0,0-13,11.27H99.13a13.16,13.16,0,0,0-13-11.27Zm13.16,15H103v37.59H99.28Z"/><path class="cls-4" d="M88,23.71a5.64,5.64,0,1,0,5.64,5.64A5.64,5.64,0,0,0,88,23.71Zm0,7.52a1.88,1.88,0,1,1,1.88-1.88A1.88,1.88,0,0,1,88,31.23Z"/><path class="cls-4" d="M114.32,35a5.64,5.64,0,1,0-5.64-5.64A5.64,5.64,0,0,0,114.32,35Zm0-7.52a1.88,1.88,0,1,1-1.88,1.88,1.88,1.88,0,0,1,1.88-1.88Z"/><path class="cls-4" d="M106.8,40.63a5.64,5.64,0,0,1-11.28,0,1.88,1.88,0,1,0-3.76,0,9.4,9.4,0,0,0,18.8,0,1.88,1.88,0,1,0-3.76,0Z"/><path class="cls-4" d="M156.08,91.37A5.62,5.62,0,0,0,151.9,82h-7.51a5.62,5.62,0,0,0-4.18,9.4,5.56,5.56,0,0,0,0,7.52,5.62,5.62,0,0,0,4.18,9.4h7.51a5.62,5.62,0,0,0,4.18-9.4,5.56,5.56,0,0,0,0-7.52Zm-13.57,3.76a1.88,1.88,0,0,1,1.88-1.88h7.51a1.88,1.88,0,0,1,0,3.76h-7.51a1.88,1.88,0,0,1-1.88-1.88Zm1.88-9.4h7.51a1.88,1.88,0,0,1,0,3.76h-7.51a1.88,1.88,0,0,1,0-3.76Zm7.51,18.8h-7.51a1.88,1.88,0,1,1,0-3.76h7.51a1.88,1.88,0,0,1,0,3.76Z"/><path class="cls-4" d="M57.93,108.29a5.62,5.62,0,0,0,4.18-9.4,5.56,5.56,0,0,0,0-7.52A5.62,5.62,0,0,0,57.93,82H50.42a5.62,5.62,0,0,0-4.18,9.4,5.56,5.56,0,0,0,0,7.52,5.62,5.62,0,0,0,4.18,9.4ZM48.54,95.13a1.88,1.88,0,0,1,1.88-1.88h7.51a1.88,1.88,0,1,1,0,3.76H50.42a1.88,1.88,0,0,1-1.88-1.88Zm1.88-9.4h7.51a1.88,1.88,0,1,1,0,3.76H50.42a1.88,1.88,0,0,1,0-3.76Zm-1.88,16.92a1.88,1.88,0,0,1,1.88-1.88h7.51a1.88,1.88,0,0,1,0,3.76H50.42a1.88,1.88,0,0,1-1.88-1.88Z"/></g></g></g></svg>