<svg xmlns="http://www.w3.org/2000/svg" xmlns:xlink="http://www.w3.org/1999/xlink" viewBox="0 0 169.61 155.99"><defs><style>.cls-1{fill:none;}.cls-2{fill:#e5007d;}.cls-3{clip-path:url(#clip-path);}.cls-4{opacity:0.3;}.cls-5{fill:#fff;}</style><clipPath id="clip-path"><circle class="cls-1" cx="91.62" cy="78" r="78"/></clipPath></defs><title>icon-survol1</title><g id="Calque_2" data-name="Calque 2"><g id="Calque_1-2" data-name="Calque 1"><circle class="cls-2" cx="91.62" cy="78" r="78"/><g class="cls-3"><g class="cls-4"><path class="cls-5" d="M133.21,135.3H118.74a7.09,7.09,0,0,1-7.06-7.12V28.62a6.73,6.73,0,0,1,6.7-6.77h15.18a6.73,6.73,0,0,1,6.7,6.77v99.56a7.08,7.08,0,0,1-7,7.12"/><path class="cls-5" d="M17.62,29.84a6,6,0,0,1,5.23-8.91c9.15-.06,11.25-.47,19.56-.05,2.4.13,5.47,3,6.82,5.46,12.71,22.91,31.86,52.1,44.1,75.29,1.38,2.62,1.94,7,.71,9.5-3.73,7.59-4.51,9.16-9,17a6,6,0,0,1-10.43-.07Z"/><path class="cls-5" d="M0,113.46c.21-12.3,9.88-21.61,22-21.18A21.51,21.51,0,1,1,0,113.46"/></g></g></g></g></svg>