<svg xmlns="http://www.w3.org/2000/svg" xmlns:xlink="http://www.w3.org/1999/xlink" viewBox="0 0 155.99 155.99"><defs><style>.cls-1{fill:none;}.cls-2{fill:#00b2bb;}.cls-3{clip-path:url(#clip-path);}.cls-4{fill:#fff;}</style><clipPath id="clip-path"><circle class="cls-1" cx="78" cy="78" r="78"/></clipPath></defs><title>icon-logistique</title><g id="Calque_2" data-name="Calque 2"><g id="Calque_1-2" data-name="Calque 1"><circle class="cls-2" cx="78" cy="78" r="78"/><g class="cls-3"><path class="cls-4" d="M135.23,138.17V116.84H113.91V44.33h-12.8v77A14.94,14.94,0,0,0,92.58,117V60.51L76.4,44.33H39.27A15,15,0,0,0,24.34,59.26V99.78H22.21a10.68,10.68,0,0,0-10.67,10.66V127.5a6.4,6.4,0,0,0,6.4,6.4h2.3a14.91,14.91,0,0,0,29.52,0H75.69a14.89,14.89,0,0,0,25.42,8.29v4.51h12.8v-4.27H139.5v-4.26ZM88.32,62.27V94.63l-9.78-9.78L83.43,80l-3-3L67.62,89.74l3,3,4.89-4.89,12.8,12.79v16.18h-14L57.82,100.39a6.23,6.23,0,0,0,.64-2.74,6.39,6.39,0,0,0-6.4-6.4H37.13v-32a2.13,2.13,0,0,1,2.14-2.13h43.9ZM54.2,97.65a2.14,2.14,0,0,1-2.14,2.13H37.13V95.51H52.06a2.14,2.14,0,0,1,2.14,2.14ZM28.6,59.26A10.67,10.67,0,0,1,39.27,48.6H74.64l4.26,4.26H39.27a6.4,6.4,0,0,0-6.4,6.4V99.78H28.6ZM35,142.43a10.67,10.67,0,1,1,10.67-10.66A10.66,10.66,0,0,1,35,142.43Zm43.33-19.34a15.9,15.9,0,0,0-1.1,1.77l-.15.32a13.36,13.36,0,0,0-.79,1.92,1,1,0,0,0-.06.16,14.15,14.15,0,0,0-.5,2.14c0,.08,0,.15,0,.23H49.78c0-.16-.06-.32-.09-.48s-.07-.41-.12-.61-.13-.54-.21-.8-.1-.38-.16-.56-.2-.55-.31-.83-.11-.32-.18-.48q-.21-.47-.45-.93c-.06-.1-.1-.21-.16-.31a13,13,0,0,0-.72-1.19l-.15-.2c-.21-.31-.43-.61-.67-.9l-.32-.36c-.2-.22-.39-.45-.61-.66s-.25-.25-.38-.37-.41-.39-.62-.57l-.44-.35-.64-.49-.49-.32-.68-.42-.52-.28c-.24-.13-.48-.24-.73-.35l-.54-.24-.77-.28-.56-.19c-.27-.08-.55-.14-.83-.21l-.54-.13c-.32-.06-.64-.1-1-.14l-.47-.07c-.49,0-1-.07-1.47-.07s-1,0-1.46.07l-.47.07c-.32,0-.64.09-1,.15s-.36.08-.54.12l-.84.22c-.19,0-.37.12-.55.18l-.77.28-.55.24-.72.35-.52.28c-.23.14-.46.27-.68.43s-.33.21-.49.32-.44.32-.65.49l-.44.35a6.76,6.76,0,0,0-.62.57c-.13.12-.27.24-.39.37s-.41.44-.61.66l-.31.36c-.24.29-.47.6-.68.91l-.14.19c-.26.39-.5.78-.72,1.19a3.18,3.18,0,0,0-.16.32q-.24.45-.45.93c-.07.15-.13.32-.19.48s-.21.54-.3.83-.11.36-.16.55-.15.54-.22.81-.08.4-.11.6-.07.32-.09.49H17.94a2.13,2.13,0,0,1-2.13-2.14h0V110.44a6.4,6.4,0,0,1,6.4-6.4H55.45L72.51,121.1H80a.1.1,0,0,1,0,.05,17.47,17.47,0,0,0-1.38,1.59l-.26.35Zm12.12,19.34a10.67,10.67,0,1,1,10.66-10.66,10.66,10.66,0,0,1-10.66,10.66Zm19.19,0h-4.26V48.6h4.26ZM128,121.1l-5.51,5.52-5.52-5.52Zm-14,3,5.51,5.51-5.51,5.52Zm3,14,5.52-5.52,5.51,5.52Zm14-3-5.52-5.52,5.52-5.51Z"/><path class="cls-4" d="M35,125.37a6.4,6.4,0,1,0,6.4,6.4,6.4,6.4,0,0,0-6.4-6.4Zm0,8.53a2.14,2.14,0,1,1,2.13-2.13A2.14,2.14,0,0,1,35,133.9Z"/><path class="cls-4" d="M90.45,125.37a6.4,6.4,0,1,0,6.4,6.4,6.4,6.4,0,0,0-6.4-6.4Zm0,8.53a2.14,2.14,0,1,1,2.13-2.13,2.13,2.13,0,0,1-2.13,2.13Z"/></g></g></g></svg>