<svg xmlns="http://www.w3.org/2000/svg" viewBox="0 0 155.99 155.99"><defs><style>.cls-1{fill:#00b2bb;}.cls-2{fill:#fff;}</style></defs><title>icon-metallerie</title><g id="Calque_2" data-name="Calque 2"><g id="Calque_1-2" data-name="Calque 1"><circle class="cls-1" cx="78" cy="78" r="78"/><path class="cls-2" d="M103.2,27.11H65.4a4.21,4.21,0,0,0-4.2,4.2v21a4.21,4.21,0,0,0,4.2,4.2h37.8a4.21,4.21,0,0,0,4.2-4.2v-21a4.21,4.21,0,0,0-4.2-4.2ZM65.4,52.32v-21h37.8v21Z"/><rect class="cls-2" x="82.2" y="64.92" width="4.2" height="4.2"/><rect class="cls-2" x="94.8" y="64.92" width="4.2" height="4.2"/><rect class="cls-2" x="69.6" y="64.92" width="4.2" height="4.2"/><path class="cls-2" d="M70.21,46.63,82.81,34l3,3L73.18,49.6Z"/><path class="cls-2" d="M85.79,49.61l-3-3,6.31-6.31,3,3Z"/><path class="cls-2" d="M94.56,40.83l-3-3L95.41,34l3,3Z"/><path class="cls-2" d="M119.67,89.76,114,88.21a6.25,6.25,0,0,0,1.8-4.39V29.21a14.72,14.72,0,0,0-14.7-14.7H67.5a14.72,14.72,0,0,0-14.7,14.7V83.82a6.25,6.25,0,0,0,1.8,4.39l-5.67,1.55A14.73,14.73,0,0,0,38.1,103.94v21.88A18.91,18.91,0,0,0,57,144.72h73.5V103.94a14.73,14.73,0,0,0-10.83-14.18ZM57,91.91l4.2-1.14v22.45h8.4v2.1a4.21,4.21,0,0,0-4.2,4.2v6.3H59.1a2.1,2.1,0,0,1-2.1-2.1Zm16.8,27.61v6.3H69.6v-6.3ZM42.3,103.94A10.53,10.53,0,0,1,50,93.81l2.77-.75v22.26H42.3Zm32.55,36.58H57a14.71,14.71,0,0,1-14.7-14.7v-6.3H52.8v4.2a6.3,6.3,0,0,0,6.3,6.3H74.85a5.25,5.25,0,0,1,0,10.5Zm36.75,0H82.7A9.4,9.4,0,0,0,78,126.4v-6.88a4.21,4.21,0,0,0-4.2-4.2v-2.1h33.6V98.52h-4.2V109h-29a6.28,6.28,0,0,1,5.91-4.2H96.9v-4.2H80.1A10.52,10.52,0,0,0,69.81,109H65.4V90.12h7a12.56,12.56,0,0,0,23.7,0h7v4.2h4.2V90.77l4.2,1.14ZM77,90.12H91.56a8.37,8.37,0,0,1-14.52,0Zm34.56-6.3a2.1,2.1,0,0,1-2.1,2.1H59.1a2.1,2.1,0,0,1-2.1-2.1V29.21a10.51,10.51,0,0,1,10.5-10.5h33.6a10.51,10.51,0,0,1,10.5,10.5Zm14.7,56.7H115.8v-18.9h10.5Zm0-23.1H115.8V93.06l2.77.75a10.53,10.53,0,0,1,7.73,10.13Z"/></g></g></svg>