<svg xmlns="http://www.w3.org/2000/svg" xmlns:xlink="http://www.w3.org/1999/xlink" viewBox="0 0 155.99 155.99"><defs><style>.cls-1{fill:none;}.cls-2{fill:#00b2bb;}.cls-3{clip-path:url(#clip-path);}.cls-4{fill:#fff;}</style><clipPath id="clip-path"><circle class="cls-1" cx="78" cy="78" r="78"/></clipPath></defs><title>icon-agro</title><g id="Calque_2" data-name="Calque 2"><g id="Calque_1-2" data-name="Calque 1"><circle class="cls-2" cx="78" cy="78" r="78"/><g class="cls-3"><path class="cls-4" d="M30.14,121l0,0a2.08,2.08,0,1,0-2.53,3.31h0a2,2,0,0,0,1.26.43A2.08,2.08,0,0,0,30.14,121Z"/><path class="cls-4" d="M30.14,103.9l0,0a2.08,2.08,0,1,0-2.53,3.3l0,0a2,2,0,0,0,1.26.43,2.08,2.08,0,0,0,1.27-3.73Z"/><path class="cls-4" d="M30.14,86.85l0,0a2.08,2.08,0,1,0-2.53,3.3l0,0a2,2,0,0,0,1.26.43,2.08,2.08,0,0,0,1.27-3.73Z"/><path class="cls-4" d="M110,120.94h0a2.08,2.08,0,1,0-2.52,3.31l0,0a2.09,2.09,0,0,0,2.92-.4,2.1,2.1,0,0,0-.4-2.92Z"/><path class="cls-4" d="M110,103.89h0a2.08,2.08,0,1,0-2.52,3.31l0,0a2.12,2.12,0,0,0,1.26.42,2.08,2.08,0,0,0,1.26-3.74Z"/><path class="cls-4" d="M110,86.84h0a2.08,2.08,0,1,0-2.52,3.31h0A2.08,2.08,0,1,0,110,86.84Z"/><path class="cls-4" d="M92.38,94.94h0a2.08,2.08,0,1,0,0,4.15h0a2.08,2.08,0,1,0,0-4.15Z"/><path class="cls-4" d="M45.22,112h0a2.08,2.08,0,1,0,0,4.16h0a2.08,2.08,0,0,0,0-4.16Z"/><path class="cls-4" d="M32.35,65.24a2.06,2.06,0,0,0-1.47-.61,2.1,2.1,0,0,0-1.47.61,2.08,2.08,0,0,0,0,2.94,2.08,2.08,0,1,0,2.94-2.94Z"/><path class="cls-4" d="M119.94,77.89H111.3a12.38,12.38,0,0,0-.59-21.8A12.38,12.38,0,0,0,93.36,40.24a14.35,14.35,0,0,0-8.29-2.63l-.6,0a16.09,16.09,0,0,0-29.73-1.76c-.5,0-1-.07-1.5-.07a16.1,16.1,0,0,0-14.82,9.83c-.44-.13-.89-.25-1.34-.35a9.15,9.15,0,0,1,2.52-6.06,5.49,5.49,0,0,1,2.56-1.45h0a2.08,2.08,0,0,0,1.17-.59,2.06,2.06,0,0,0,.61-1.46,2.08,2.08,0,0,0-2.08-2.09,2,2,0,0,0-.34,0h0A9.22,9.22,0,0,0,37,36V28.81a2.08,2.08,0,0,0-2.08-2.08h-5a2.08,2.08,0,0,0-2.08,2.08v7.78a25.12,25.12,0,0,0-5.17-4.78,2.08,2.08,0,0,0-2.28,3.48c.07.05,6.36,4.26,7.3,10.32-7,2.11-12.15,8.3-12.15,15.58,0,3,1.73,10.29,3.42,16.7H17.63A2.08,2.08,0,0,0,15.55,80v51.16a2.09,2.09,0,0,0,2.08,2.08H119.94a2.08,2.08,0,0,0,2.08-2.08V80a2.08,2.08,0,0,0-2.08-2.07ZM53.24,40a12.82,12.82,0,0,1,2.39.23A2.07,2.07,0,0,0,58,38.85a11.93,11.93,0,0,1,22.33-.43A14.41,14.41,0,0,0,70.67,52a2.08,2.08,0,0,0,4.16,0,10.24,10.24,0,0,1,17-7.66,2.09,2.09,0,0,0,2.63.11,8.1,8.1,0,0,1,4.92-1.65A8.23,8.23,0,0,1,107.63,51a8.14,8.14,0,0,1-1.62,4.9,2.08,2.08,0,0,0,1.16,3.26,8.21,8.21,0,0,1-3.57,16,2.1,2.1,0,0,0-2.36,1.34,7.58,7.58,0,0,1-.61,1.33H98l8.51-12.21a2.11,2.11,0,0,0,.34-1.58,2,2,0,0,0-.89-1.34l-6.06-4a2.09,2.09,0,0,0-1.61-.29,2,2,0,0,0-1.32,1l-3,5,2.49-12.55a2.09,2.09,0,0,0-1.62-2.44l-5.3-1.09a2.11,2.11,0,0,0-1.58.31A2.08,2.08,0,0,0,87.05,50l-.68,3.64H81.52a2.08,2.08,0,0,0-2.08,2.08v12a15.42,15.42,0,0,0-15.1-12.44,15.25,15.25,0,0,0-9.25,3.09,15.64,15.64,0,0,0-5,6.49,22.61,22.61,0,0,0,.4-3.62,15.42,15.42,0,0,0-2.12-7.79,7.62,7.62,0,0,1,7.15-5,7.76,7.76,0,0,1,1.52.15,2.09,2.09,0,0,0,2.38-1.35,7.68,7.68,0,0,1,2.24-3.27A2.08,2.08,0,1,0,59,40.78a11.83,11.83,0,0,0-2.78,3.48h-.66a11.78,11.78,0,0,0-10,5.54,16.91,16.91,0,0,0-3.3-2.49,11.94,11.94,0,0,1,11-7.34Zm38.34,36.4,7.83-13L101.9,65l-9,12.85H91.28ZM89,68.07V62.3l0-.14,1.74-9.34,1.2.24Zm-5.4,6.21a1.94,1.94,0,0,0,0-.24V57.78h1.22V77.89h-.66c0-.13,0-.27,0-.4a9,9,0,0,0-.59-3.21Zm-28.52-9.7h-.18a11.22,11.22,0,0,1,20.5,4,8.69,8.69,0,0,0-7,3.68,15.38,15.38,0,0,0-13.31-7.68Zm11,13.31H44a11.22,11.22,0,0,1,22.06,0Zm9.35-5.15A4.67,4.67,0,0,1,80,77.49c0,.14,0,.27,0,.4H70.88c0-.13,0-.26,0-.4a4.67,4.67,0,0,1,4.57-4.75ZM32,30.89h.84v14c-.28,0-.56,0-.84,0ZM19.84,59.55a2.58,2.58,0,0,0,.4,0H30.52a2.08,2.08,0,1,0,0-4.16H21.29A13.53,13.53,0,0,1,33,49c7.34,0,13.31,5.47,13.31,12.2a21.38,21.38,0,0,1-.42,3.39H37.65a2.08,2.08,0,1,0,0,4.16h6.91a15.33,15.33,0,0,0-4.74,9.15H23.28C21,69.4,19.71,63.36,19.71,61.19a11,11,0,0,1,.13-1.64Zm98,35.39H99.56a2.08,2.08,0,1,0,0,4.15h18.3V112H52.28a2.08,2.08,0,1,0,0,4.16h65.58V129H19.71V116.15H38A2.08,2.08,0,0,0,38,112H19.71V99.09H85.3a2.08,2.08,0,0,0,0-4.15H19.71V82h98.15Z"/><path class="cls-4" d="M66.6,38h0a2.08,2.08,0,0,0,0,4.16h0a2.08,2.08,0,0,0,0-4.16Z"/></g></g></g></svg>