<svg viewBox="0 0 401.87 401.87" xmlns="http://www.w3.org/2000/svg"><circle cx="200.94" cy="200.94" fill="#00b2bb" r="200.94"/><g fill="none" stroke="#fff" stroke-linecap="round" stroke-linejoin="round" stroke-width="11.34"><path d="m178.36 43.69v38.04"/><path d="m159.21 320.38v-56.8h40.8v56.8"/><path d="m196.98 43.69v19.02"/><path d="m95.31 128.09 82.83-44.32 85.76 44.32"/><path d="m332.69 244.89v91.55m-65.26-182.75v182.75" transform="translate(-27.16 -16.06)"/><path d="m253.34 207.09h69.29v-30.88h-80.81"/><path d="m148 133.91v202.53m152-38.16v24m0-64.5v24" transform="translate(-27.16 -16.06)"/><path d="m114.65 207.09h-78.07v-30.88h80.82"/><path d="m80.8 228.57v107.87m30.25-37.64v23.66m0-63.62v23.66" transform="translate(-27.16 -16.06)"/><path d="m326.13 321.72h-294.12"/></g><path d="m230.15 197.9h-5.68a2.76 2.76 0 0 1 -2.76-2.78v-39.29a2.71 2.71 0 0 1 2.73-2.63h6a2.64 2.64 0 0 1 2.63 2.64v39.28a2.87 2.87 0 0 1 -2.88 2.77" fill="#fff" transform="translate(-27.16 -16.06)"/><path d="m184.88 156.74a2.41 2.41 0 0 1 2.12-3.52h7.54c1 0 2.22 1.25 2.75 2.2 5 8.93 12.46 20.31 17.24 29.35a4.72 4.72 0 0 1 .27 3.7c-1.47 3-1.78 3.56-3.53 6.62a2.34 2.34 0 0 1 -4.09 0z" fill="#fff" transform="translate(-27.16 -16.06)"/><path d="m178 189.36a8.39 8.39 0 1 1 8.4 8.53 8.28 8.28 0 0 1 -8.4-8.53" fill="#fff" transform="translate(-27.16 -16.06)"/></svg>