<svg xmlns="http://www.w3.org/2000/svg" viewBox="0 0 34.62 34.62"><defs><style>.cls-1{fill:#e5007d;}.cls-2{fill:#fff;}</style></defs><title>icon-t</title><g id="Calque_2" data-name="Calque 2"><g id="Calque_1-2" data-name="Calque 1"><g id="_Groupe_" data-name="&lt;Groupe&gt;"><g id="_Groupe_2" data-name="&lt;Groupe&gt;"><path class="cls-1" d="M34.62,17.31A17.31,17.31,0,1,1,17.31,0,17.31,17.31,0,0,1,34.62,17.31Z"/></g><g id="_Groupe_3" data-name="&lt;Groupe&gt;"><path class="cls-2" d="M27.34,10.57a6.74,6.74,0,0,1-2.17.56A4.15,4.15,0,0,0,27,8.83a8.27,8.27,0,0,1-2.64,1,4.17,4.17,0,0,0-7.2,2.85,4.33,4.33,0,0,0,.11,1A11.85,11.85,0,0,1,8.69,9.29a4.21,4.21,0,0,0-.56,2.09A4.16,4.16,0,0,0,10,14.84a4,4,0,0,1-1.88-.52v.06a4.17,4.17,0,0,0,3.33,4.08,4.28,4.28,0,0,1-1.09.14,4,4,0,0,1-.78-.07,4.17,4.17,0,0,0,3.88,2.89A8.38,8.38,0,0,1,8.27,23.2a8.22,8.22,0,0,1-1-.06S8.82,25.26,14.17,26s14.58-2.87,11.32-13.37A7.17,7.17,0,0,0,27.34,10.57Z"/></g></g></g></g></svg>