<svg xmlns="http://www.w3.org/2000/svg" viewBox="0 0 90.89 91"><defs><style>.cls-1{fill:#e5007d;}</style></defs><title>rencontres</title><g id="Calque_2" data-name="Calque 2"><g id="Calque_1-2" data-name="Calque 1"><path class="cls-1" d="M78.87,75.83c-4.1,0-4.55-1.82-4.55-2.73a15.1,15.1,0,0,0,9.1-14.41V57.63A13.6,13.6,0,0,0,69.77,44H51.57a1.44,1.44,0,0,0-1.52,1.52,13.59,13.59,0,0,0,3.64,9.25,22.19,22.19,0,0,0-.61,4.4,15.31,15.31,0,0,0,9.1,13.95c0,.91-.45,2.73-4.55,2.73a7.51,7.51,0,0,0-7.58,7.59V91h3V83.42a4.47,4.47,0,0,1,4.55-4.55c4.7,0,7.59-2.28,7.59-6.07V72a1.46,1.46,0,0,0-1.07-1.36,12.28,12.28,0,0,1-8-11.53A9.36,9.36,0,0,1,56.27,57a13.76,13.76,0,0,0,7.43,2.12H80.38a11.92,11.92,0,0,1-8,11.37,1.47,1.47,0,0,0-1.06,1.37v.91c0,3.79,2.88,6.07,7.59,6.07a4.47,4.47,0,0,1,4.55,4.55V91h3V83.42a7.51,7.51,0,0,0-7.58-7.59ZM63.7,56.12A10.62,10.62,0,0,1,53.23,47H69.77a10.61,10.61,0,0,1,10.46,9.1Z"/><path class="cls-1" d="M90.85,41V15.17A5.87,5.87,0,0,0,84.93,9.1H54.6v-3A6.09,6.09,0,0,0,48.53,0H6.07A6.09,6.09,0,0,0,0,6.07V39.43Q0,49,6.82,53.08l1.52-2.57C4.85,48.23,3,44.74,3,39.43V6.07a3.05,3.05,0,0,1,3-3H48.53a3.05,3.05,0,0,1,3,3V34.88a3.05,3.05,0,0,1-3,3h-27a9.49,9.49,0,0,0-9.41,8.19V47h3v-.61A6.38,6.38,0,0,1,21.54,41h27a6.09,6.09,0,0,0,6.07-6.07H72.8a7.51,7.51,0,0,1,7.58,7.59h3A10.56,10.56,0,0,0,72.8,31.85H54.6V12.13H84.93a3.05,3.05,0,0,1,3,3V41a13.24,13.24,0,0,1-2.73,8.8l2.27,2A15.27,15.27,0,0,0,90.85,41Z"/><path class="cls-1" d="M37.92,77.35a4.5,4.5,0,0,1-4.55-4.25,15.21,15.21,0,1,0-12.14,0,4.5,4.5,0,0,1-4.55,4.25A7.51,7.51,0,0,0,9.1,84.93V91h3V84.93a4.47,4.47,0,0,1,4.55-4.55,7.51,7.51,0,0,0,7.59-7.58V72a1.46,1.46,0,0,0-1.07-1.36,12.27,12.27,0,0,1-8-9.86h4.55a2.1,2.1,0,0,0,.91-.31l3.64-2.42,3.64,2.42a2,2,0,0,0,.91.31H39.28a12,12,0,0,1-8,9.86A1.46,1.46,0,0,0,30.18,72v.76a7.51,7.51,0,0,0,7.58,7.58,4.47,4.47,0,0,1,4.55,4.55V91h3V84.93a7.3,7.3,0,0,0-7.43-7.58ZM29.27,57.63,25.18,54.9a1.66,1.66,0,0,0-1.67,0l-4.25,2.73H15.32a11.91,11.91,0,0,1,13.5-10.46A12.07,12.07,0,0,1,39.28,57.63Z"/><rect class="cls-1" x="7.58" y="7.58" width="31.85" height="3.03"/><rect class="cls-1" x="7.58" y="13.65" width="9.1" height="3.03"/><rect class="cls-1" x="19.72" y="13.65" width="22.75" height="3.03"/><rect class="cls-1" x="7.58" y="19.72" width="3.03" height="3.03"/><rect class="cls-1" x="13.65" y="19.72" width="12.13" height="3.03"/><rect class="cls-1" x="28.82" y="19.72" width="13.65" height="3.03"/><rect class="cls-1" x="63.7" y="18.2" width="21.23" height="3.03"/><rect class="cls-1" x="57.63" y="24.27" width="10.62" height="3.03"/><rect class="cls-1" x="71.28" y="24.27" width="13.65" height="3.03"/><rect class="cls-1" x="57.63" y="18.2" width="3.03" height="3.03"/></g></g></svg>